<svg width="12" height="13" viewBox="0 0 12 13" fill="none" xmlns="http://www.w3.org/2000/svg">
<path d="M1.15499 4.53956L2.135 5.70456C2.285 5.87956 2.285 6.16956 2.135 6.34456L1.15499 7.50956C1.01999 7.77956 1.15499 8.10956 1.44499 8.20956L2.10999 8.42956C2.26999 8.48456 2.50499 8.42956 2.62499 8.30956L3.765 7.17456C3.845 7.08956 4.00499 7.02456 4.11999 7.02456L5.545 7.02456C5.755 7.02456 5.855 7.17956 5.775 7.37456L4.715 9.82956C4.54999 10.2146 4.755 10.5296 5.175 10.5296L5.82 10.5296C6.155 10.5296 6.53999 10.2796 6.66999 9.96956L7.87499 7.17456C7.90999 7.09456 8.01499 7.02456 8.10499 7.02456L9.60499 7.02456C10.075 7.02456 10.63 6.67956 10.845 6.25956C10.92 6.10956 10.92 5.93456 10.845 5.78456C10.63 5.36456 10.07 5.01956 9.59999 5.01956L8.09999 5.01956C8.00999 5.01956 7.90499 4.94956 7.86999 4.86956L6.665 2.07956C6.54 1.76956 6.155 1.51956 5.82 1.51956L5.175 1.51956C4.755 1.51956 4.55 1.83456 4.715 2.21956L5.775 4.67456C5.86 4.86456 5.755 5.02456 5.545 5.02456L4.11999 5.02456C4.00499 5.02456 3.845 4.95956 3.765 4.87956L2.625 3.74456C2.505 3.62456 2.27499 3.56956 2.10999 3.62456L1.44499 3.84456C1.15499 3.93456 1.01499 4.26456 1.15499 4.53956Z" stroke="#3F3F3F" stroke-width="1.5" stroke-linecap="round" stroke-linejoin="round"/>
</svg>
