<svg width="12" height="13" viewBox="0 0 12 13" fill="none" xmlns="http://www.w3.org/2000/svg">
<path d="M6 9.27457C7.79493 9.27457 9.25 7.81949 9.25 6.02457C9.25 4.22964 7.79493 2.77457 6 2.77457C4.20507 2.77457 2.75 4.22964 2.75 6.02457C2.75 7.81949 4.20507 9.27457 6 9.27457Z" stroke="#3F3F3F" stroke-width="1.5" stroke-linecap="round" stroke-linejoin="round"/>
<path d="M9.57 9.59457L9.505 9.52957M9.505 2.51957L9.57 2.45457L9.505 2.51957ZM2.43 9.59457L2.495 9.52957L2.43 9.59457ZM6 1.06457V1.02457V1.06457ZM6 11.0246V10.9846V11.0246ZM1.04 6.02457H1H1.04ZM11 6.02457H10.96H11ZM2.495 2.51957L2.43 2.45457L2.495 2.51957Z" stroke="#3F3F3F" stroke-width="2" stroke-linecap="round" stroke-linejoin="round"/>
</svg>
